<svg width="150" height="50" viewBox="0 0 150 50" fill="none" xmlns="http://www.w3.org/2000/svg">
<path d="M79.35 15.69C79.35 15.58 79.99 15.69 81.17 15.69C82.76 15.76 83.49 15.69 85.53 15.69C87.05 15.69 90.29 15.62 98 15.58C98.64 12.49 99.29 9.4 99.93 6.31H94.78C89.04 6.31 90.95 6.31 88.09 6.31C85.82 6.31 84.09 6.31 81.71 6.43C80.5179 6.4354 79.3303 6.57631 78.17 6.85C76.5236 7.22698 74.9996 8.01481 73.74 9.14C72.4636 10.3657 71.5354 11.9082 71.05 13.61C70.528 15.2293 70.4794 16.964 70.91 18.61C71.4126 20.3347 72.4232 21.868 73.81 23.01C74.8923 23.8283 76.0796 24.4976 77.34 25C78.26 25.41 78.28 25.36 80.18 26.13C83.18 27.32 82.71 27.28 83.87 27.68C84.7509 27.9787 85.6069 28.3466 86.43 28.78L86.82 29.01L87.14 29.18C87.57 29.44 87.35 30.63 87.35 30.63C87.03 32.35 86.58 37.9 87.62 38.29H87.83C88.5903 38.3066 89.3488 38.2088 90.08 38C91.1469 37.6732 92.139 37.1397 93 36.43C94.4204 35.1746 95.4133 33.507 95.84 31.66C96.3216 30.1134 96.3769 28.4654 96 26.89C95.6449 25.5743 94.9835 24.3613 94.07 23.35C89.6 18.15 79.24 16.16 79.35 15.69Z" fill="white"/>
<path d="M75.94 29.44L74.41 38.26H70.07L71.86 29.37H75.96L75.94 29.44Z" fill="white"/>
<path d="M45.57 6.3L52.57 19.07L45.54 33.86H60L66.92 19.07L59.78 6.32L45.57 6.3Z" fill="white"/>
<path d="M77.41 38.26H74.22L75.94 29.38H79.17L77.41 38.26Z" fill="#1C1C1C"/>
<path d="M81.14 38.26H87.79V29.37H82.56L81.11 38.26H81.14H81.11V38.27" fill="white"/>
<path d="M83.37 29.44L81.84 38.26H77.53L79.31 29.37H83.38L83.37 29.44Z" fill="#1C1C1C"/>
<path d="M96.9 38.22L104.62 6.32001H115.06L107.32 38.22H96.9Z" fill="white"/>
<path d="M118.39 38.26H118.46H123.68V33.3" fill="#231F20"/>
<path d="M23 46.1818V42.4997H25.9534C26.1674 42.4753 26.3824 42.5361 26.5519 42.6689C26.6199 42.7414 26.6713 42.8279 26.7028 42.9222C26.7342 43.0165 26.7449 43.1165 26.7341 43.2153V44.035C26.7456 44.1319 26.7353 44.2301 26.7038 44.3225C26.6722 44.4148 26.6203 44.4989 26.5519 44.5684C26.3824 44.7012 26.1674 44.762 25.9534 44.7376H23.6115V46.1818H23ZM25.7192 42.9811H23.6115V44.2822H25.7192C25.8293 44.2951 25.9404 44.2673 26.0315 44.2041C26.0916 44.1165 26.1192 44.0107 26.1095 43.9049V43.3845C26.1192 43.2787 26.0916 43.1728 26.0315 43.0852C25.944 43.0128 25.8326 42.9757 25.7192 42.9811Z" fill="white"/>
<path d="M28.2303 46.182V42.5H31.1967C31.4104 42.4783 31.6244 42.5388 31.7952 42.6691C31.8632 42.7417 31.9146 42.8281 31.9461 42.9224C31.9775 43.0167 31.9882 43.1167 31.9773 43.2156V44.0352C31.9889 44.1321 31.9786 44.2304 31.947 44.3227C31.9155 44.4151 31.8636 44.4991 31.7952 44.5687C31.6244 44.699 31.4104 44.7595 31.1967 44.7378H30.6633L32.3546 46.182H31.4439L29.9347 44.7768H28.8548V46.221L28.2303 46.182ZM30.9625 42.9814H28.8548V44.2824H30.9625C31.018 44.2906 31.0747 44.2867 31.1286 44.271C31.1825 44.2553 31.2323 44.2281 31.2748 44.1914C31.3374 44.11 31.3655 44.0071 31.3528 43.9051V43.3717C31.3625 43.2659 31.3349 43.16 31.2748 43.0725C31.1839 43.0077 31.0739 42.9757 30.9625 42.9814Z" fill="white"/>
<path d="M33.6557 46.182V42.5H37.1946V42.9944H34.2802V44.0223H36.0757V44.5037H34.2802V45.6746H37.2336V46.182H33.6557Z" fill="white"/>
<path d="M41.8134 43.0074H39.2113V45.6095H41.8134V44.7769L42.4249 44.907V45.3493C42.4496 45.5936 42.3849 45.8386 42.2427 46.0389C42.0481 46.1824 41.8066 46.2474 41.5662 46.221H39.5105C39.3903 46.2535 39.2637 46.2535 39.1435 46.2209C39.0234 46.1884 38.914 46.1245 38.8267 46.0358C38.7393 45.9472 38.6771 45.8369 38.6464 45.7162C38.6157 45.5956 38.6175 45.469 38.6518 45.3493V43.3717C38.6192 43.1268 38.6847 42.879 38.8339 42.6821C39.0286 42.5386 39.2701 42.4736 39.5105 42.5H41.5662C41.8066 42.4736 42.0481 42.5386 42.2427 42.6821C42.386 42.8819 42.4508 43.1273 42.4249 43.3717V43.723L41.8134 43.8271V43.0074Z" fill="white"/>
<path d="M44.0642 46.182V42.5H44.6757V46.182H44.0642Z" fill="white"/>
<path d="M49.6978 43.0074H47.0957V44.0222H49.4116C49.6517 43.9995 49.8919 44.0642 50.0881 44.2044C50.2303 44.4046 50.295 44.6496 50.2703 44.8939V45.3103C50.295 45.5546 50.2303 45.7996 50.0881 45.9998C49.8935 46.1434 49.652 46.2084 49.4116 46.182H47.2648C47.1447 46.2145 47.018 46.2144 46.8979 46.1819C46.7777 46.1494 46.6684 46.0855 46.581 45.9968C46.4937 45.9081 46.4314 45.7978 46.4007 45.6772C46.37 45.5566 46.3719 45.4299 46.4061 45.3103V45.2062L46.9786 45.0761V45.6616H49.7108V44.5557H47.4079C47.1632 44.5868 46.9159 44.5215 46.7184 44.3735C46.5817 44.176 46.5216 43.9355 46.5492 43.697V43.3717C46.5196 43.1289 46.5797 42.8836 46.7184 42.6821C46.9186 42.54 47.1636 42.4753 47.4079 42.5H49.3595C49.5998 42.4749 49.8409 42.5398 50.0361 42.6821C50.1075 42.7683 50.1605 42.8681 50.1918 42.9755C50.2231 43.083 50.2321 43.1956 50.2182 43.3066V43.3847L49.6978 43.5278V43.0074Z" fill="white"/>
<path d="M52.1178 46.182V42.5H55.6697V42.9944H52.7423V44.0223H54.4727V44.5037H52.7423V45.6746H55.6957V46.182H52.1178Z" fill="white"/>
<path d="M62.9557 43.0074H60.3535V44.0222H62.6694C62.9057 43.9966 63.1429 44.0617 63.333 44.2044C63.481 44.4018 63.5463 44.6492 63.5151 44.8939V45.3103C63.5424 45.5529 63.4825 45.7974 63.346 45.9998C63.1508 46.1422 62.9097 46.2071 62.6694 46.182H60.5227C60.4025 46.2145 60.2759 46.2144 60.1557 46.1819C60.0356 46.1494 59.9262 46.0855 59.8389 45.9968C59.7515 45.9081 59.6893 45.7978 59.6586 45.6772C59.6278 45.5566 59.6297 45.4299 59.664 45.3103V45.2062L60.2364 45.0761V45.6616H62.9687V44.5557H60.6528C60.5336 44.5715 60.4124 44.5635 60.2963 44.5323C60.1802 44.501 60.0714 44.447 59.9762 44.3735C59.8396 44.176 59.7794 43.9355 59.8071 43.697V43.3717C59.7774 43.1289 59.8376 42.8836 59.9762 42.6821C60.1714 42.5398 60.4125 42.4749 60.6528 42.5H62.6174C62.8575 42.4773 63.0977 42.542 63.2939 42.6821C63.433 42.859 63.4982 43.0828 63.4761 43.3066V43.3847L62.9557 43.5278V43.0074Z" fill="white"/>
<path d="M65.9871 42.5V45.6616H68.6673V42.5H69.2788V45.3103C69.3035 45.5546 69.2388 45.7996 69.0967 45.9999C68.902 46.1434 68.6605 46.2084 68.4201 46.182H66.1823C66.0622 46.196 65.9405 46.186 65.8244 46.1525C65.7082 46.119 65.5999 46.0627 65.5057 45.9869C65.3634 45.7917 65.2985 45.5506 65.3236 45.3103V42.5H65.9871Z" fill="white"/>
<path d="M71.1914 46.182V42.5H74.1578C74.3713 42.4809 74.5844 42.5411 74.7563 42.6691C74.8216 42.7435 74.8713 42.8301 74.9026 42.924C74.9339 43.0178 74.9461 43.117 74.9385 43.2156V44.0353C74.9474 44.132 74.9358 44.2295 74.9044 44.3214C74.873 44.4134 74.8225 44.4976 74.7563 44.5687C74.5844 44.6967 74.3713 44.757 74.1578 44.7378H73.6114L75.2898 46.182H74.379L72.8828 44.7769H71.8029V46.221L71.1914 46.182ZM73.9106 42.9814H71.8029V44.2825H73.9106C73.9662 44.2906 74.0228 44.2867 74.0767 44.271C74.1306 44.2553 74.1804 44.2281 74.2229 44.1914C74.2591 44.1539 74.2861 44.1086 74.3019 44.0589C74.3177 44.0093 74.3218 43.9567 74.314 43.9052V43.3717C74.3202 43.3182 74.3154 43.2641 74.2997 43.2126C74.284 43.1611 74.2579 43.1134 74.2229 43.0725C74.1336 43.0047 74.0224 42.9723 73.9106 42.9814Z" fill="white"/>
<path d="M77.8919 46.182L75.8882 42.5H76.5908L78.2172 45.5705L79.7654 42.5H80.3769L78.4513 46.182H77.8919Z" fill="white"/>
<path d="M81.5349 46.182V42.5H85.0737V42.9944H82.1464V44.0223H83.9418V44.5037H82.1464V45.6746H85.0998V46.182H81.5349Z" fill="white"/>
<path d="M87.7019 46.182V44.5687L85.8414 42.5H86.596L88.0402 44.1394L89.4193 42.5H90.1609L88.3004 44.5557V46.182H87.7019Z" fill="white"/>
<path d="M91.0456 43.3717C91.0183 43.1291 91.0783 42.8846 91.2148 42.6821C91.4145 42.5389 91.6599 42.4741 91.9043 42.5H94.5065C94.7469 42.4736 94.9884 42.5386 95.183 42.6821C95.3263 42.8819 95.3911 43.1273 95.3652 43.3717V45.3103C95.3899 45.5546 95.3252 45.7996 95.183 45.9999C94.9884 46.1434 94.7469 46.2084 94.5065 46.182H91.9043C91.7822 46.197 91.6583 46.1875 91.5399 46.154C91.4214 46.1205 91.3109 46.0637 91.2148 45.9868C91.0781 45.7894 91.018 45.5489 91.0456 45.3103V43.3717ZM91.6571 45.6616H94.7016V43.0595H91.6571V45.6616Z" fill="white"/>
<path d="M97.1606 46.182V42.5H100.127C100.341 42.4783 100.555 42.5388 100.726 42.6691C100.791 42.7435 100.841 42.8301 100.872 42.9239C100.903 43.0178 100.915 43.1169 100.908 43.2156V44.0352C100.917 44.132 100.905 44.2295 100.874 44.3214C100.842 44.4134 100.792 44.4976 100.726 44.5687C100.555 44.699 100.341 44.7595 100.127 44.7378H99.5936L101.311 46.182H100.4L98.865 44.7768H97.7852V46.221L97.1606 46.182ZM99.8929 42.9814H97.7852V44.2824H99.8929C100.005 44.2942 100.117 44.2615 100.205 44.1914C100.268 44.11 100.296 44.0071 100.283 43.9051V43.3717C100.293 43.2659 100.265 43.16 100.205 43.0725C100.114 43.0077 100.004 42.9757 99.8929 42.9814Z" fill="white"/>
<path d="M105.735 43.0074H103.133V44.0222H105.448C105.685 43.9966 105.922 44.0617 106.112 44.2044C106.26 44.4018 106.325 44.6492 106.294 44.8939V45.3103C106.321 45.5529 106.261 45.7974 106.125 45.9998C105.93 46.1422 105.689 46.2071 105.448 46.182H103.302C103.181 46.2145 103.055 46.2144 102.935 46.1819C102.815 46.1494 102.705 46.0855 102.618 45.9968C102.53 45.9081 102.468 45.7978 102.438 45.6772C102.407 45.5566 102.409 45.4299 102.443 45.3103V45.2062L103.002 45.0761V45.6616H105.748V44.5557H103.432C103.313 44.5715 103.191 44.5635 103.075 44.5323C102.959 44.501 102.85 44.447 102.755 44.3735C102.613 44.1783 102.548 43.9373 102.573 43.697V43.3717C102.547 43.1273 102.612 42.8819 102.755 42.6821C102.95 42.5398 103.191 42.4749 103.432 42.5H105.396C105.636 42.4773 105.877 42.542 106.073 42.6821C106.212 42.859 106.277 43.0828 106.255 43.3066V43.3847L105.735 43.5278V43.0074Z" fill="white"/>
<path d="M110.822 46.182V42.5H111.433V45.6616H114.218V46.182H110.822Z" fill="white"/>
<path d="M116.117 43.0074V46.182H115.506V43.0074H113.814V42.5H117.796V43.0074H116.117Z" fill="white"/>
<path d="M120.827 42.5C121.108 42.476 121.391 42.476 121.673 42.5C121.875 42.5396 122.069 42.6144 122.245 42.7212C122.483 42.8823 122.676 43.1018 122.805 43.3587C122.937 43.6394 123.003 43.9463 123 44.2564C123.005 44.5751 122.938 44.8907 122.805 45.1802C122.68 45.4436 122.487 45.6684 122.245 45.8307C122.069 45.9353 121.875 46.0059 121.673 46.0389C121.395 46.097 121.111 46.1232 120.827 46.117H118.81V42.5H120.827ZM120.749 43.0074H119.448V45.6095H120.749C121.206 45.6587 121.665 45.5484 122.05 45.2973C122.29 45.0113 122.422 44.6496 122.422 44.276C122.422 43.9023 122.29 43.5406 122.05 43.2546C121.68 43.0415 121.251 42.9547 120.827 43.0074H120.749Z" fill="white"/>
<path d="M45.56 6.3L51.75 19.07L45.54 33.86H48.79L54.82 19.07L48.94 6.32L45.56 6.3Z" fill="#1C1C1C"/>
<path d="M51.03 6.31L57.58 19.09L51.09 33.85H53.31L59.63 19.09L53.19 6.31H51.03Z" fill="#1C1C1C"/>
<path d="M81.7 29.44L80.18 38.26H75.86L77.64 29.37H81.72L81.7 29.44Z" fill="white"/>
<path d="M68.37 38.28H66.03L67.84 29.39H70.02L68.37 38.28Z" fill="white"/>
<path d="M70.22 38.26H67.87L69.68 29.37H71.86L70.22 38.26Z" fill="#1C1C1C"/>
<path d="M107.32 38.22L123.66 29.37V38.26H114.82H114.71" fill="white"/>
<path d="M23.41 38.34H37.66L47.86 19.73L40.42 6.32001L23.41 38.34Z" fill="white"/>
</svg>
