<svg width="150" height="50" viewBox="0 0 150 50" fill="none" xmlns="http://www.w3.org/2000/svg">
<path d="M79.35 15.69C79.35 15.58 79.99 15.69 81.17 15.69C82.76 15.76 83.49 15.69 85.53 15.69C87.05 15.69 90.29 15.62 98 15.58C98.64 12.49 99.29 9.4 99.93 6.31H94.78C89.04 6.31 90.95 6.31 88.09 6.31C85.82 6.31 84.09 6.31 81.71 6.43C80.5179 6.4354 79.3303 6.57631 78.17 6.85C76.5236 7.22698 74.9996 8.01481 73.74 9.14C72.4636 10.3657 71.5354 11.9082 71.05 13.61C70.528 15.2293 70.4794 16.964 70.91 18.61C71.4126 20.3347 72.4232 21.868 73.81 23.01C74.8923 23.8283 76.0796 24.4976 77.34 25C78.26 25.41 78.28 25.36 80.18 26.13C83.18 27.32 82.71 27.28 83.87 27.68C84.7509 27.9787 85.6069 28.3466 86.43 28.78L86.82 29.01L87.14 29.18C87.57 29.44 87.35 30.63 87.35 30.63C87.03 32.35 86.58 37.9 87.62 38.29H87.83C88.5903 38.3066 89.3488 38.2088 90.08 38C91.1469 37.6732 92.139 37.1397 93 36.43C94.4204 35.1746 95.4133 33.507 95.84 31.66C96.3216 30.1134 96.3769 28.4654 96 26.89C95.6449 25.5743 94.9835 24.3613 94.07 23.35C89.6 18.15 79.24 16.16 79.35 15.69Z" fill="#1C1C1C"/>
<path d="M75.94 29.44L74.41 38.26H70.07L71.86 29.37H75.96L75.94 29.44Z" fill="#231F20"/>
<path d="M45.57 6.3L52.57 19.07L45.54 33.86H60L66.92 19.07L59.78 6.32L45.57 6.3Z" fill="#202020"/>
<path d="M77.41 38.26H74.22L75.94 29.38H79.17L77.41 38.26Z" fill="white"/>
<path d="M81.14 38.26H87.79V29.37H82.56L81.11 38.26H81.14H81.11V38.27" fill="#231F20"/>
<path d="M83.37 29.44L81.84 38.26H77.53L79.31 29.37H83.38L83.37 29.44Z" fill="white"/>
<path d="M96.9 38.22L104.62 6.32001H115.06L107.32 38.22H96.9Z" fill="#1C1C1C"/>
<path d="M118.39 38.26H118.46H123.68V33.3" fill="#231F20"/>
<path d="M23 46.2342V42.5154H25.9829C26.1991 42.4907 26.4162 42.5521 26.5874 42.6862C26.6561 42.7595 26.708 42.8468 26.7398 42.942C26.7715 43.0373 26.7823 43.1383 26.7714 43.2381V44.066C26.7831 44.1638 26.7726 44.2631 26.7408 44.3563C26.7089 44.4496 26.6565 44.5345 26.5874 44.6048C26.4162 44.7389 26.1991 44.8003 25.9829 44.7756H23.6176V46.2342H23ZM25.7464 43.0016H23.6176V44.3157H25.7464C25.8576 44.3286 25.9698 44.3006 26.0618 44.2368C26.1225 44.1483 26.1504 44.0414 26.1406 43.9346V43.4089C26.1504 43.3021 26.1225 43.1952 26.0618 43.1067C25.9734 43.0336 25.861 42.9961 25.7464 43.0016Z" fill="#010101"/>
<path d="M28.2826 46.2341V42.5152H31.2787C31.4946 42.4933 31.7107 42.5544 31.8832 42.6861C31.9518 42.7594 32.0038 42.8466 32.0355 42.9419C32.0673 43.0371 32.0781 43.1382 32.0671 43.238V44.0658C32.0788 44.1637 32.0684 44.2629 32.0365 44.3562C32.0047 44.4494 31.9523 44.5343 31.8832 44.6046C31.7107 44.7363 31.4946 44.7973 31.2787 44.7754H30.7399L32.4482 46.2341H31.5284L30.004 44.8149H28.9133V46.2735L28.2826 46.2341ZM31.0421 43.0014H28.9133V44.3155H31.0421C31.0982 44.3238 31.1554 44.3198 31.2099 44.3039C31.2643 44.2881 31.3147 44.2606 31.3575 44.2235C31.4208 44.1413 31.4492 44.0374 31.4364 43.9344V43.3957C31.4461 43.2888 31.4183 43.1819 31.3575 43.0934C31.2658 43.0281 31.1546 42.9956 31.0421 43.0014Z" fill="#010101"/>
<path d="M33.7623 46.2341V42.5152H37.3366V43.0146H34.393V44.0527H36.2064V44.5389H34.393V45.7216H37.376V46.2341H33.7623Z" fill="#010101"/>
<path d="M42.0015 43.0277H39.3734V45.6559H42.0015V44.8149L42.6191 44.9463V45.393C42.6441 45.6398 42.5787 45.8873 42.4352 46.0895C42.2386 46.2345 41.9946 46.3002 41.7519 46.2735H39.6756C39.5542 46.3063 39.4263 46.3062 39.305 46.2734C39.1836 46.2405 39.0732 46.176 38.985 46.0864C38.8967 45.9969 38.8339 45.8855 38.8029 45.7636C38.7718 45.6418 38.7737 45.5139 38.8083 45.393V43.3957C38.7754 43.1483 38.8415 42.898 38.9923 42.6992C39.1889 42.5542 39.4328 42.4886 39.6756 42.5152H41.7519C41.9946 42.4886 42.2386 42.5542 42.4352 42.6992C42.5799 42.9009 42.6453 43.1488 42.6191 43.3957V43.7505L42.0015 43.8556V43.0277Z" fill="#010101"/>
<path d="M44.2749 46.2341V42.5152H44.8925V46.2341H44.2749Z" fill="#010101"/>
<path d="M49.9648 43.0277H47.3367V44.0527H49.6757C49.9182 44.0298 50.1608 44.0951 50.359 44.2367C50.5026 44.4389 50.568 44.6864 50.543 44.9331V45.3536C50.568 45.6004 50.5026 45.8478 50.359 46.0501C50.1625 46.195 49.9185 46.2607 49.6757 46.2341H47.5075C47.3861 46.2669 47.2582 46.2668 47.1369 46.2339C47.0155 46.2011 46.9051 46.1366 46.8169 46.047C46.7286 45.9574 46.6658 45.846 46.6347 45.7242C46.6037 45.6024 46.6056 45.4745 46.6402 45.3536V45.2485L47.2184 45.1171V45.7084H49.978V44.5915H47.652C47.4048 44.6229 47.155 44.557 46.9556 44.4075C46.8176 44.208 46.7568 43.9651 46.7848 43.7242V43.3956C46.7548 43.1504 46.8155 42.9027 46.9556 42.6992C47.1578 42.5556 47.4053 42.4903 47.652 42.5152H49.6232C49.8659 42.4898 50.1093 42.5554 50.3065 42.6992C50.3786 42.7862 50.4321 42.8871 50.4637 42.9955C50.4954 43.104 50.5045 43.2178 50.4904 43.3299V43.4088L49.9648 43.5533V43.0277Z" fill="#010101"/>
<path d="M52.409 46.2341V42.5152H55.9964V43.0146H53.0398V44.0527H54.7875V44.5389H53.0398V45.7216H56.0227V46.2341H52.409Z" fill="#010101"/>
<path d="M63.3552 43.0277H60.7271V44.0527H63.0661C63.3048 44.0268 63.5443 44.0925 63.7363 44.2367C63.8858 44.4361 63.9518 44.6859 63.9203 44.9331V45.3536C63.9479 45.5987 63.8873 45.8456 63.7495 46.0501C63.5523 46.1939 63.3088 46.2594 63.0661 46.2341H60.8979C60.7765 46.2669 60.6486 46.2668 60.5273 46.2339C60.4059 46.2011 60.2955 46.1366 60.2073 46.047C60.119 45.9574 60.0562 45.846 60.0252 45.7242C59.9941 45.6024 59.996 45.4745 60.0306 45.3536V45.2485L60.6088 45.1171V45.7084H63.3684V44.5915H61.0293C60.9089 44.6074 60.7865 44.5994 60.6693 44.5678C60.552 44.5362 60.4421 44.4817 60.346 44.4075C60.208 44.208 60.1472 43.9651 60.1752 43.7242V43.3956C60.1452 43.1504 60.2059 42.9027 60.346 42.6992C60.5431 42.5554 60.7866 42.4898 61.0293 42.5152H63.0136C63.2561 42.4923 63.4987 42.5576 63.6969 42.6992C63.8373 42.8778 63.9032 43.1038 63.8809 43.3299V43.4088L63.3552 43.5533V43.0277Z" fill="#010101"/>
<path d="M66.417 42.5152V45.7084H69.124V42.5152H69.7416V45.3536C69.7666 45.6004 69.7012 45.8478 69.5576 46.0501C69.3611 46.195 69.1171 46.2607 68.8743 46.2341H66.6141C66.4928 46.2482 66.37 46.238 66.2526 46.2042C66.1353 46.1704 66.0259 46.1135 65.9308 46.0369C65.787 45.8398 65.7214 45.5963 65.7468 45.3536V42.5152H66.417Z" fill="#010101"/>
<path d="M71.6733 46.2341V42.5152H74.6694C74.885 42.4959 75.1002 42.5567 75.2739 42.6861C75.3398 42.7611 75.3901 42.8486 75.4216 42.9434C75.4532 43.0382 75.4656 43.1384 75.4579 43.238V44.0658C75.4669 44.1635 75.4551 44.262 75.4234 44.3549C75.3917 44.4477 75.3408 44.5328 75.2739 44.6046C75.1002 44.7339 74.885 44.7948 74.6694 44.7754H74.1175L75.8127 46.2341H74.8928L73.3816 44.8149H72.2909V46.2735L71.6733 46.2341ZM74.4197 43.0014H72.2909V44.3155H74.4197C74.4758 44.3238 74.533 44.3198 74.5875 44.3039C74.6419 44.2881 74.6923 44.2606 74.7351 44.2235C74.7717 44.1857 74.799 44.1399 74.815 44.0898C74.8309 44.0396 74.8351 43.9865 74.8271 43.9344V43.3957C74.8334 43.3417 74.8285 43.2869 74.8127 43.2349C74.7969 43.1829 74.7705 43.1347 74.7351 43.0934C74.6449 43.025 74.5326 42.9922 74.4197 43.0014Z" fill="#010101"/>
<path d="M78.4408 46.2341L76.4171 42.5152H77.1267L78.7693 45.6164L80.3331 42.5152H80.9507L79.0058 46.2341H78.4408Z" fill="#010101"/>
<path d="M82.1202 46.2341V42.5152H85.6945V43.0146H82.7378V44.0527H84.5513V44.5389H82.7378V45.7216H85.7208V46.2341H82.1202Z" fill="#010101"/>
<path d="M88.3489 46.2341V44.6046L86.4698 42.5152H87.232L88.6906 44.171L90.0835 42.5152H90.8325L88.9534 44.5915V46.2341H88.3489Z" fill="#010101"/>
<path d="M91.7261 43.3957C91.6985 43.1506 91.7591 42.9037 91.8969 42.6992C92.0986 42.5545 92.3465 42.489 92.5934 42.5152H95.2215C95.4643 42.4886 95.7083 42.5542 95.9049 42.6992C96.0495 42.9009 96.115 43.1488 96.0888 43.3957V45.3536C96.1138 45.6004 96.0484 45.8478 95.9049 46.0501C95.7083 46.195 95.4643 46.2607 95.2215 46.2341H92.5934C92.47 46.2493 92.3449 46.2396 92.2253 46.2058C92.1057 46.1719 91.994 46.1145 91.8969 46.0369C91.7589 45.8375 91.6982 45.5946 91.7261 45.3536V43.3957ZM92.3437 45.7084H95.4186V43.0803H92.3437V45.7084Z" fill="#010101"/>
<path d="M97.9022 46.2341V42.5152H100.898C101.114 42.4933 101.33 42.5544 101.503 42.6861C101.569 42.7611 101.619 42.8486 101.651 42.9434C101.682 43.0382 101.694 43.1384 101.687 43.238V44.0658C101.696 44.1635 101.684 44.262 101.652 44.3549C101.621 44.4477 101.57 44.5328 101.503 44.6046C101.33 44.7363 101.114 44.7973 100.898 44.7754H100.36L102.094 46.2341H101.174L99.6237 44.8149H98.533V46.2735L97.9022 46.2341ZM100.662 43.0014H98.533V44.3155H100.662C100.775 44.3274 100.888 44.2944 100.977 44.2235C101.04 44.1413 101.069 44.0374 101.056 43.9344V43.3957C101.066 43.2888 101.038 43.1819 100.977 43.0934C100.885 43.0281 100.774 42.9956 100.662 43.0014Z" fill="#010101"/>
<path d="M106.562 43.0277H103.934V44.0527H106.273C106.512 44.0268 106.751 44.0925 106.943 44.2367C107.093 44.4361 107.159 44.6859 107.127 44.9331V45.3536C107.155 45.5987 107.094 45.8456 106.956 46.0501C106.759 46.1939 106.516 46.2594 106.273 46.2341H104.105C103.983 46.2669 103.855 46.2668 103.734 46.2339C103.613 46.2011 103.502 46.1366 103.414 46.047C103.326 45.9574 103.263 45.846 103.232 45.7242C103.201 45.6024 103.203 45.4745 103.237 45.3536V45.2485L103.802 45.1171V45.7084H106.575V44.5915H104.236C104.116 44.6074 103.993 44.5994 103.876 44.5678C103.759 44.5362 103.649 44.4817 103.553 44.4075C103.409 44.2103 103.343 43.9669 103.369 43.7242V43.3956C103.343 43.1488 103.408 42.9009 103.553 42.6992C103.75 42.5554 103.993 42.4898 104.236 42.5152H106.22C106.463 42.4923 106.705 42.5576 106.904 42.6992C107.044 42.8778 107.11 43.1038 107.088 43.3299V43.4088L106.562 43.5533V43.0277Z" fill="#010101"/>
<path d="M111.7 46.2341V42.5152H112.318V45.7084H115.13V46.2341H111.7Z" fill="#010101"/>
<path d="M117.048 43.0277V46.2341H116.431V43.0277H114.722V42.5152H118.743V43.0277H117.048Z" fill="#010101"/>
<path d="M121.805 42.5152C122.089 42.491 122.375 42.491 122.659 42.5152C122.864 42.5552 123.059 42.6308 123.238 42.7386C123.478 42.9013 123.673 43.123 123.803 43.3825C123.936 43.666 124.003 43.976 124 44.2892C124.005 44.611 123.937 44.9298 123.803 45.2222C123.677 45.4882 123.482 45.7153 123.238 45.8792C123.06 45.9848 122.864 46.0562 122.659 46.0895C122.379 46.1482 122.092 46.1746 121.805 46.1683H119.768V42.5152H121.805ZM121.726 43.0277H120.412V45.6559H121.726C122.188 45.7055 122.652 45.5941 123.04 45.3405C123.283 45.0516 123.416 44.6863 123.416 44.3089C123.416 43.9316 123.283 43.5663 123.04 43.2774C122.667 43.0621 122.233 42.9745 121.805 43.0277H121.726Z" fill="#010101"/>
<path d="M45.56 6.3L51.75 19.07L45.54 33.86H48.79L54.82 19.07L48.94 6.32L45.56 6.3Z" fill="white"/>
<path d="M51.03 6.31L57.58 19.09L51.09 33.85H53.31L59.63 19.09L53.19 6.31H51.03Z" fill="white"/>
<path d="M81.7 29.44L80.18 38.26H75.86L77.64 29.37H81.72L81.7 29.44Z" fill="#1C1C1C"/>
<path d="M68.37 38.28H66.03L67.84 29.39H70.02L68.37 38.28Z" fill="#231F20"/>
<path d="M70.22 38.26H67.87L69.68 29.37H71.86L70.22 38.26Z" fill="white"/>
<path d="M107.32 38.22L123.66 29.37V38.26H114.82H114.71" fill="#1C1C1C"/>
<path d="M23.41 38.34H37.66L47.86 19.73L40.42 6.32001L23.41 38.34Z" fill="#231F20"/>
</svg>
