<svg width="1907" height="1907" viewBox="0 0 1907 1907" fill="none" xmlns="http://www.w3.org/2000/svg">
<rect width="1907" height="1907" rx="953.5" fill="#F8D21C"/>
<path d="M1049.05 781.396C1049.5 779.565 1059.46 780.906 1078.87 781.837C1105.01 783.079 1116.83 782.066 1150.38 781.396C1175.19 780.889 1228.35 780.252 1354.79 779.647C1365.33 729.145 1375.85 678.644 1386.38 628.158C1366.16 628.126 1337.11 628.109 1302.06 628.158C1207.85 628.256 1239.21 628.518 1192.37 628.534C1155.14 628.55 1127.38 628.42 1087.64 630.561C1051.56 632.506 1040.53 634.467 1029.76 637.343C1013.2 641.772 984.214 649.863 957.082 674.852C951.901 679.624 925.425 704.695 912.933 747.826C908.769 762.176 900.293 792.902 910.654 830.214C912.359 836.343 923.474 874.407 958.246 902.241C972.328 913.501 986.935 919.973 1016.15 932.885C1031.18 939.537 1031.56 938.818 1062.64 951.271C1111.35 970.802 1104.04 970.116 1123.19 976.669C1123.19 976.669 1149.61 985.707 1165.07 994.729C1165.38 994.909 1167.93 996.412 1171.43 998.341C1174.78 1000.19 1176.17 1000.87 1176.7 1001.18C1183.8 1005.42 1180.21 1024.83 1180.21 1024.83C1175.01 1053.08 1167.58 1143.68 1184.6 1150.06C1184.99 1150.21 1186.04 1150.21 1188.11 1150.27C1190.03 1150.35 1207.03 1150.86 1224.94 1145.89C1250.73 1138.77 1270.54 1122.52 1273.21 1120.28C1305.23 1093.53 1315.18 1058.73 1319.7 1042.35C1323.64 1028.1 1331.31 998.962 1322.33 964.412C1319.65 954.099 1312.46 931.659 1290.75 906.621C1217.04 821.634 1047.22 789.012 1049.05 781.396Z" fill="#1B1C1C"/>
<path d="M993.098 1006.11L968.031 1150.19H896.897L926.276 1005.01H993.393L993.098 1006.11Z" fill="#231F20"/>
<path d="M495.22 628L609.946 836.561L494.712 1078.28H731.852L845.184 836.643L728.212 628.229L495.22 628Z" fill="#202020"/>
<path d="M1017.22 1150.25H964.887L993.183 1005.04H1046.17L1017.22 1150.25Z" fill="white"/>
<path d="M1078.29 1150.25H1187.37V1004.97H1101.6L1077.93 1150.3L1078.29 1150.25H1077.94L1077.93 1150.33" fill="#231F20"/>
<path d="M1114.86 1006.06L1089.93 1150.26H1019.15L1048.38 1004.97H1115.16L1114.86 1006.06Z" fill="white"/>
<path d="M1336.81 1149.53L1463.32 628.149H1634.52L1507.52 1149.53H1336.81Z" fill="#1B1C1C"/>
<path d="M1689.13 1150.25H1690.19H1775.8V1069.27" fill="#231F20"/>
<path d="M353.09 1237.79H326.532V1253.93H353.09C354.992 1253.93 356.303 1253.57 357.008 1252.83C357.73 1252.11 358.09 1250.85 358.09 1249.07V1242.65C358.09 1240.87 357.73 1239.63 357.008 1238.89C356.303 1238.15 354.992 1237.79 353.09 1237.79ZM318.777 1278V1231.81H356.123C359.582 1231.81 362.09 1232.53 363.631 1233.94C365.173 1235.36 365.927 1237.63 365.927 1240.79V1251.08C365.927 1254.2 365.173 1256.48 363.631 1257.88C362.09 1259.29 359.582 1259.99 356.123 1259.99H326.532V1278H318.777Z" fill="#030505"/>
<path d="M419.138 1237.79H392.58V1254.01H419.138C421.073 1254.01 422.384 1253.66 423.089 1252.96C423.794 1252.28 424.139 1251.05 424.139 1249.28V1242.57C424.139 1240.82 423.778 1239.58 423.057 1238.87C422.352 1238.15 421.04 1237.79 419.138 1237.79ZM384.826 1278V1231.81H422.171C425.63 1231.81 428.139 1232.53 429.68 1233.94C431.221 1235.36 431.975 1237.63 431.975 1240.79V1251.08C431.975 1254.2 431.221 1256.48 429.68 1257.88C428.139 1259.29 425.63 1259.99 422.171 1259.99H415.368L436.549 1278H425.057L406.204 1259.99H392.58V1278H384.826Z" fill="#030505"/>
<path d="M453.24 1278V1231.81H497.865V1238.02H460.995V1250.87H483.52V1256.98H460.995V1271.66H498.209V1278H453.24Z" fill="#030505"/>
<path d="M555.839 1238.11H523.723V1271.58H555.839V1260L563.593 1261.6V1267.07C563.593 1271.32 562.855 1274.22 561.363 1275.74C559.871 1277.26 557.019 1277.99 552.822 1277.99H526.87C522.673 1277.99 519.804 1277.24 518.28 1275.7C516.755 1274.17 516.001 1271.29 516.001 1267.07V1242.74C516.001 1238.51 516.755 1235.65 518.28 1234.11C519.804 1232.57 522.673 1231.8 526.87 1231.8H552.822C557.019 1231.8 559.871 1232.57 561.363 1234.09C562.855 1235.61 563.593 1238.47 563.593 1242.74V1247.12L555.839 1248.56V1238.11Z" fill="#030505"/>
<path d="M583.929 1231.81H591.683V1278H583.929V1231.81Z" fill="#030505"/>
<path d="M655.244 1238.11H622.456V1250.99H651.654C655.769 1250.99 658.589 1251.76 660.097 1253.28C661.621 1254.78 662.392 1257.64 662.392 1261.88V1267.07C662.392 1271.32 661.638 1274.22 660.146 1275.74C658.654 1277.26 655.834 1277.99 651.654 1277.99H624.604C620.407 1277.99 617.538 1277.24 616.013 1275.7C614.505 1274.17 613.734 1271.29 613.734 1267.07V1265.8L620.931 1264.15V1271.58H655.424V1257.68H626.309C622.112 1257.68 619.259 1256.91 617.767 1255.39C616.275 1253.87 615.538 1250.98 615.538 1246.76V1242.74C615.538 1238.51 616.275 1235.65 617.767 1234.11C619.259 1232.57 622.112 1231.8 626.309 1231.8H650.998C655.113 1231.8 657.949 1232.56 659.523 1234.06C661.08 1235.56 661.851 1238.19 661.851 1241.95V1242.92L655.244 1244.78V1238.11Z" fill="#030505"/>
<path d="M685.791 1278V1231.81H730.416V1238.02H693.545V1250.87H716.071V1256.98H693.545V1271.66H730.76V1278H685.791Z" fill="#030505"/>
<path d="M822.275 1238.11H789.487V1250.99H818.685C822.8 1250.99 825.62 1251.76 827.128 1253.28C828.652 1254.78 829.423 1257.64 829.423 1261.88V1267.07C829.423 1271.32 828.669 1274.22 827.177 1275.74C825.685 1277.26 822.865 1277.99 818.685 1277.99H791.635C787.438 1277.99 784.569 1277.24 783.044 1275.7C781.536 1274.17 780.765 1271.29 780.765 1267.07V1265.8L787.962 1264.15V1271.58H822.455V1257.68H793.34C789.143 1257.68 786.29 1256.91 784.798 1255.39C783.306 1253.87 782.569 1250.98 782.569 1246.76V1242.74C782.569 1238.51 783.306 1235.65 784.798 1234.11C786.29 1232.57 789.143 1231.8 793.34 1231.8H818.029C822.144 1231.8 824.98 1232.56 826.554 1234.06C828.111 1235.56 828.882 1238.19 828.882 1241.95V1242.92L822.275 1244.78V1238.11Z" fill="#030505"/>
<path d="M860.578 1231.81V1271.59H894.334V1231.81H901.957V1267.08C901.957 1271.33 901.203 1274.22 899.695 1275.74C898.186 1277.24 895.35 1278 891.17 1278H863.693C859.48 1278 856.627 1277.23 855.103 1275.69C853.578 1274.14 852.824 1271.26 852.824 1267.08V1231.81H860.578Z" fill="#030505"/>
<path d="M960.376 1237.79H933.817V1254.01H960.376C962.31 1254.01 963.622 1253.66 964.327 1252.96C965.032 1252.28 965.376 1251.05 965.376 1249.28V1242.57C965.376 1240.82 965.015 1239.58 964.294 1238.87C963.589 1238.15 962.277 1237.79 960.376 1237.79ZM926.063 1278V1231.81H963.409C966.868 1231.81 969.376 1232.53 970.917 1233.94C972.458 1235.36 973.212 1237.63 973.212 1240.79V1251.08C973.212 1254.2 972.458 1256.48 970.917 1257.88C969.376 1259.29 966.868 1259.99 963.409 1259.99H956.605L977.786 1278H966.294L947.441 1259.99H933.817V1278H926.063Z" fill="#030505"/>
<path d="M1010.74 1278L985.445 1231.81H993.773L1014.23 1270.3L1033.79 1231.81H1041.45L1017.22 1278H1010.74Z" fill="#030505"/>
<path d="M1056.4 1278V1231.81H1101.03V1238.02H1064.17V1250.87H1086.7V1256.98H1064.17V1271.66H1101.37V1278H1056.4Z" fill="#030505"/>
<path d="M1134.15 1278V1257.86L1110.65 1231.81H1120.24L1138.36 1252.41L1155.7 1231.81H1165.13L1141.87 1257.68V1278H1134.15Z" fill="#030505"/>
<path d="M1183.89 1271.59H1222.23V1238.12H1183.89V1271.59ZM1176.16 1242.74C1176.16 1238.54 1176.92 1235.67 1178.43 1234.15C1179.93 1232.59 1182.8 1231.81 1187.05 1231.81H1219.08C1223.26 1231.81 1226.08 1232.58 1227.59 1234.11C1229.1 1235.63 1229.85 1238.51 1229.85 1242.74V1267.08C1229.85 1271.33 1229.1 1274.22 1227.59 1275.74C1226.08 1277.24 1223.26 1278 1219.08 1278H1187.05C1182.8 1278 1179.93 1277.23 1178.43 1275.69C1176.92 1274.14 1176.16 1271.26 1176.16 1267.08V1242.74Z" fill="#030505"/>
<path d="M1287.66 1237.79H1261.11V1254.01H1287.66C1289.58 1254.01 1290.89 1253.66 1291.6 1252.96C1292.3 1252.28 1292.66 1251.05 1292.66 1249.28V1242.57C1292.66 1240.82 1292.29 1239.58 1291.58 1238.87C1290.86 1238.15 1289.55 1237.79 1287.66 1237.79ZM1253.34 1278V1231.81H1290.68C1294.16 1231.81 1296.66 1232.53 1298.21 1233.94C1299.73 1235.36 1300.5 1237.63 1300.5 1240.79V1251.08C1300.5 1254.2 1299.73 1256.48 1298.21 1257.88C1296.66 1259.29 1294.16 1259.99 1290.68 1259.99H1283.89L1305.06 1278H1293.57L1274.73 1259.99H1261.11V1278H1253.34Z" fill="#030505"/>
<path d="M1361.28 1238.11H1328.5V1250.99H1357.69C1361.8 1250.99 1364.62 1251.76 1366.15 1253.28C1367.67 1254.78 1368.44 1257.64 1368.44 1261.88V1267.07C1368.44 1271.32 1367.69 1274.22 1366.19 1275.74C1364.7 1277.26 1361.87 1277.99 1357.69 1277.99H1330.65C1326.44 1277.99 1323.57 1277.24 1322.05 1275.7C1320.54 1274.17 1319.78 1271.29 1319.78 1267.07V1265.8L1326.96 1264.15V1271.58H1361.46V1257.68H1332.36C1328.14 1257.68 1325.31 1256.91 1323.82 1255.39C1322.32 1253.87 1321.57 1250.98 1321.57 1246.76V1242.74C1321.57 1238.51 1322.32 1235.65 1323.82 1234.11C1325.31 1232.57 1328.14 1231.8 1332.36 1231.8H1357.03C1361.15 1231.8 1364 1232.56 1365.56 1234.06C1367.11 1235.56 1367.9 1238.19 1367.9 1241.95V1242.92L1361.28 1244.78V1238.11Z" fill="#030505"/>
<path d="M1425.4 1278V1231.81H1433.17V1271.58H1468.22V1278H1425.4Z" fill="#030505"/>
<path d="M1492.09 1238.11V1277.99H1484.39V1238.11H1463.21V1231.8H1513.36V1238.11H1492.09Z" fill="#030505"/>
<path d="M1550.79 1238.11H1534.13V1271.58H1550.79C1558.29 1271.58 1563.59 1270.26 1566.7 1267.65C1569.79 1265.01 1571.34 1260.68 1571.34 1254.62C1571.34 1248.77 1569.75 1244.55 1566.61 1241.97C1563.44 1239.39 1558.18 1238.11 1550.79 1238.11ZM1551.87 1231.8C1556.15 1231.8 1559.69 1232.1 1562.51 1232.67C1565.33 1233.23 1567.7 1234.14 1569.67 1235.4C1572.65 1237.35 1575 1240.03 1576.7 1243.44C1578.43 1246.84 1579.26 1250.58 1579.26 1254.62C1579.26 1258.93 1578.44 1262.82 1576.75 1266.27C1575.06 1269.72 1572.72 1272.43 1569.67 1274.43C1567.77 1275.64 1565.41 1276.55 1562.57 1277.13C1559.74 1277.71 1556.18 1277.99 1551.87 1277.99H1526.37V1231.8H1551.87Z" fill="#030505"/>
<path d="M495.159 628L596.474 836.561L494.717 1078.28H547.981L646.87 836.643L550.456 628.147L495.159 628Z" fill="white"/>
<path d="M584.738 628.117L692.169 836.874L585.673 1078.24H622.1L725.809 836.874L620.133 628.117H584.738Z" fill="white"/>
<path d="M1087.55 1006.06L1062.62 1150.26H991.845L1021.08 1004.97H1087.85L1087.55 1006.06Z" fill="#1B1C1C"/>
<path d="M869.087 1150.53H830.61L860.349 1005.27H896.039L869.087 1150.53Z" fill="#231F20"/>
<path d="M899.314 1150.28H860.838L890.576 1005.02H926.266L899.314 1150.28Z" fill="white"/>
<path d="M1507.52 1149.53L1775.38 1004.97V1150.25H1630.49H1628.67" fill="#1B1C1C"/>
<path d="M132 1151.65H365.501L532.736 847.496L410.83 628.148L132 1151.65Z" fill="#231F20"/>
</svg>
