<svg width="650" height="216" viewBox="0 0 650 216" fill="none" xmlns="http://www.w3.org/2000/svg">
<g clip-path="url(#clip0_2403_842)">
<path d="M0.229675 216H650V-8.58307e-06H0.229675V216Z" fill="#F8D21C"/>
<mask id="mask0_2403_842" style="mask-type:luminance" maskUnits="userSpaceOnUse" x="0" y="0" width="650" height="216">
<path d="M0 -8.58307e-06H650V216H0V-8.58307e-06Z" fill="white"/>
</mask>
<g mask="url(#mask0_2403_842)">
<path d="M343.857 67.7851C343.974 67.3013 346.608 67.6555 351.739 67.9017C358.646 68.2301 361.771 67.9622 370.641 67.7851C377.197 67.6512 391.25 67.4827 424.669 67.3229C427.455 53.9741 430.237 40.6253 433.019 27.2808C427.676 27.2721 419.998 27.2678 410.733 27.2808C385.829 27.3067 394.119 27.3758 381.739 27.3801C371.898 27.3845 364.561 27.3499 354.057 27.9158C344.52 28.4299 341.603 28.9483 338.756 29.7086C334.38 30.8793 326.718 33.0177 319.547 39.623C318.177 40.8845 311.179 47.5113 307.877 58.9118C306.776 62.7048 304.536 70.8264 307.275 80.6889C307.725 82.3089 310.663 92.3702 319.854 99.7272C323.577 102.704 327.438 104.414 335.16 107.827C339.133 109.585 339.233 109.395 347.449 112.687C360.323 117.85 358.391 117.668 363.452 119.4C363.452 119.4 370.437 121.789 374.524 124.174C374.606 124.222 375.278 124.619 376.205 125.129C377.089 125.617 377.457 125.798 377.596 125.88C379.472 126.999 378.523 132.131 378.523 132.131C377.15 139.596 375.187 163.547 379.685 165.231C379.789 165.27 380.066 165.27 380.612 165.287C381.119 165.309 385.613 165.443 390.349 164.13C397.165 162.246 402.4 157.952 403.106 157.36C411.569 150.288 414.2 141.091 415.396 136.763C416.436 132.995 418.464 125.293 416.089 116.16C415.383 113.435 413.48 107.503 407.743 100.885C388.26 78.4209 343.371 69.7982 343.857 67.7851Z" fill="#1B1C1C"/>
<path d="M329.066 127.181L322.441 165.266H303.638L311.404 126.892H329.144L329.066 127.181Z" fill="#231F20"/>
<path d="M197.466 27.239L227.79 82.3665L197.331 146.259H260.013L289.969 82.3881L259.051 27.2994L197.466 27.239Z" fill="#202020"/>
<path d="M335.442 165.282H321.61L329.089 126.899H343.094L335.442 165.282Z" fill="white"/>
<path d="M351.584 165.282H380.418V126.881H357.746L351.488 165.295L351.584 165.282H351.493L351.488 165.303" fill="#231F20"/>
<path d="M361.252 127.17L354.661 165.285H335.954L343.68 126.881H361.33L361.252 127.17Z" fill="white"/>
<path d="M419.917 165.091L453.358 27.2783H498.611L465.04 165.091H419.917Z" fill="#1B1C1C"/>
<path d="M513.044 165.282H513.325H535.954V143.877" fill="#231F20"/>
<path d="M159.897 188.422H152.877V192.686H159.897C160.4 192.686 160.747 192.591 160.933 192.396C161.124 192.206 161.219 191.874 161.219 191.403V189.705C161.219 189.234 161.124 188.906 160.933 188.711C160.747 188.517 160.4 188.422 159.897 188.422ZM150.828 199.049V186.841H160.699C161.613 186.841 162.276 187.031 162.684 187.402C163.091 187.778 163.29 188.379 163.29 189.213V191.934C163.29 192.759 163.091 193.36 162.684 193.731C162.276 194.103 161.613 194.289 160.699 194.289H152.877V199.049H150.828Z" fill="#030505"/>
<path d="M177.356 188.422H170.336V192.707H177.356C177.867 192.707 178.214 192.617 178.4 192.431C178.586 192.25 178.677 191.926 178.677 191.459V189.683C178.677 189.221 178.582 188.893 178.391 188.707C178.205 188.517 177.858 188.422 177.356 188.422ZM168.286 199.049V186.841H178.157C179.072 186.841 179.735 187.031 180.142 187.402C180.549 187.778 180.749 188.379 180.749 189.213V191.934C180.749 192.759 180.549 193.36 180.142 193.731C179.735 194.103 179.072 194.289 178.157 194.289H176.359L181.958 199.049H178.92L173.937 194.289H170.336V199.049H168.286Z" fill="#030505"/>
<path d="M186.369 199.049V186.841H198.165V188.482H188.419V191.878H194.373V193.494H188.419V197.373H198.256V199.049H186.369Z" fill="#030505"/>
<path d="M213.489 188.506H205V197.354H213.489V194.291L215.538 194.714V196.161C215.538 197.284 215.343 198.049 214.949 198.451C214.555 198.853 213.801 199.047 212.691 199.047H205.832C204.722 199.047 203.964 198.848 203.561 198.442C203.158 198.036 202.959 197.276 202.959 196.161V189.729C202.959 188.61 203.158 187.854 203.561 187.448C203.964 187.042 204.722 186.839 205.832 186.839H212.691C213.801 186.839 214.555 187.042 214.949 187.443C215.343 187.845 215.538 188.601 215.538 189.729V190.887L213.489 191.267V188.506Z" fill="#030505"/>
<path d="M220.913 186.84H222.963V199.048H220.913V186.84Z" fill="#030505"/>
<path d="M239.764 188.506H231.097V191.91H238.815C239.902 191.91 240.648 192.113 241.046 192.515C241.449 192.913 241.653 193.669 241.653 194.787V196.161C241.653 197.284 241.454 198.049 241.059 198.451C240.665 198.853 239.92 199.047 238.815 199.047H231.665C230.555 199.047 229.797 198.848 229.394 198.442C228.995 198.036 228.792 197.276 228.792 196.161V195.824L230.694 195.388V197.354H239.811V193.677H232.115C231.006 193.677 230.252 193.474 229.858 193.072C229.463 192.671 229.268 191.906 229.268 190.791V189.729C229.268 188.61 229.463 187.854 229.858 187.448C230.252 187.042 231.006 186.839 232.115 186.839H238.641C239.729 186.839 240.479 187.037 240.895 187.435C241.306 187.832 241.51 188.528 241.51 189.521V189.776L239.764 190.269V188.506Z" fill="#030505"/>
<path d="M247.838 199.049V186.841H259.633V188.482H249.888V191.878H255.842V193.494H249.888V197.373H259.724V199.049H247.838Z" fill="#030505"/>
<path d="M283.914 188.506H275.247V191.91H282.965C284.053 191.91 284.798 192.113 285.197 192.515C285.6 192.913 285.803 193.669 285.803 194.787V196.161C285.803 197.284 285.604 198.049 285.21 198.451C284.815 198.853 284.07 199.047 282.965 199.047H275.815C274.706 199.047 273.947 198.848 273.544 198.442C273.146 198.036 272.942 197.276 272.942 196.161V195.824L274.844 195.388V197.354H283.962V193.677H276.266C275.156 193.677 274.402 193.474 274.008 193.072C273.614 192.671 273.419 191.906 273.419 190.791V189.729C273.419 188.61 273.614 187.854 274.008 187.448C274.402 187.042 275.156 186.839 276.266 186.839H282.792C283.879 186.839 284.629 187.037 285.045 187.435C285.457 187.832 285.66 188.528 285.66 189.521V189.776L283.914 190.269V188.506Z" fill="#030505"/>
<path d="M294.038 186.84V197.355H302.961V186.84H304.976V196.163C304.976 197.286 304.776 198.05 304.378 198.452C303.979 198.85 303.229 199.048 302.124 199.048H294.862C293.748 199.048 292.994 198.845 292.591 198.439C292.188 198.029 291.989 197.269 291.989 196.163V186.84H294.038Z" fill="#030505"/>
<path d="M320.417 188.422H313.397V192.707H320.417C320.928 192.707 321.275 192.617 321.461 192.431C321.648 192.25 321.739 191.926 321.739 191.459V189.683C321.739 189.221 321.643 188.893 321.453 188.707C321.266 188.517 320.92 188.422 320.417 188.422ZM311.347 199.049V186.841H321.219C322.133 186.841 322.796 187.031 323.203 187.402C323.611 187.778 323.81 188.379 323.81 189.213V191.934C323.81 192.759 323.611 193.36 323.203 193.731C322.796 194.103 322.133 194.289 321.219 194.289H319.42L325.019 199.049H321.981L316.998 194.289H313.397V199.049H311.347Z" fill="#030505"/>
<path d="M333.73 199.049L327.044 186.841H329.245L334.653 197.014L339.823 186.841H341.846L335.442 199.049H333.73Z" fill="#030505"/>
<path d="M345.799 199.049V186.841H357.594V188.482H347.853V191.878H353.807V193.494H347.853V197.373H357.685V199.049H345.799Z" fill="#030505"/>
<path d="M366.349 199.049V193.727L360.139 186.841H362.674L367.462 192.284L372.047 186.841H374.539L368.39 193.679V199.049H366.349Z" fill="#030505"/>
<path d="M379.496 197.355H389.632V188.508H379.496V197.355ZM377.455 189.73C377.455 188.62 377.654 187.86 378.053 187.458C378.452 187.047 379.21 186.84 380.332 186.84H388.8C389.905 186.84 390.65 187.043 391.049 187.449C391.447 187.851 391.647 188.611 391.647 189.73V196.163C391.647 197.286 391.447 198.05 391.049 198.452C390.65 198.85 389.905 199.048 388.8 199.048H380.332C379.21 199.048 378.452 198.845 378.053 198.439C377.654 198.029 377.455 197.269 377.455 196.163V189.73Z" fill="#030505"/>
<path d="M406.927 188.422H399.907V192.707H406.927C407.434 192.707 407.781 192.617 407.967 192.431C408.154 192.25 408.249 191.926 408.249 191.459V189.683C408.249 189.221 408.149 188.893 407.963 188.707C407.772 188.517 407.426 188.422 406.927 188.422ZM397.853 199.049V186.841H407.725C408.643 186.841 409.306 187.031 409.714 187.402C410.117 187.778 410.32 188.379 410.32 189.213V191.934C410.32 192.759 410.117 193.36 409.714 193.731C409.306 194.103 408.643 194.289 407.725 194.289H405.931L411.525 199.049H408.487L403.508 194.289H399.907V199.049H397.853Z" fill="#030505"/>
<path d="M426.385 188.506H417.723V191.91H425.436C426.524 191.91 427.269 192.113 427.672 192.515C428.075 192.913 428.279 193.669 428.279 194.787V196.161C428.279 197.284 428.079 198.049 427.685 198.451C427.291 198.853 426.541 199.047 425.436 199.047H418.29C417.177 199.047 416.418 198.848 416.015 198.442C415.617 198.036 415.417 197.276 415.417 196.161V195.824L417.315 195.388V197.354H426.433V193.677H418.741C417.627 193.677 416.878 193.474 416.483 193.072C416.089 192.671 415.89 191.906 415.89 190.791V189.729C415.89 188.61 416.089 187.854 416.483 187.448C416.878 187.042 417.627 186.839 418.741 186.839H425.263C426.35 186.839 427.104 187.037 427.516 187.435C427.928 187.832 428.136 188.528 428.136 189.521V189.776L426.385 190.269V188.506Z" fill="#030505"/>
<path d="M443.333 199.049V186.841H445.387V197.351H454.652V199.049H443.333Z" fill="#030505"/>
<path d="M460.963 188.506V199.047H458.926V188.506H453.327V186.839H466.583V188.506H460.963Z" fill="#030505"/>
<path d="M476.476 188.506H472.074V197.354H476.476C478.461 197.354 479.861 197.004 480.684 196.312C481.499 195.617 481.91 194.472 481.91 192.869C481.91 191.323 481.49 190.208 480.658 189.526C479.822 188.843 478.431 188.506 476.476 188.506ZM476.762 186.839C477.893 186.839 478.829 186.916 479.575 187.068C480.32 187.215 480.948 187.456 481.468 187.789C482.257 188.303 482.877 189.012 483.327 189.915C483.782 190.813 484.003 191.802 484.003 192.869C484.003 194.01 483.787 195.038 483.34 195.95C482.894 196.861 482.274 197.578 481.468 198.105C480.966 198.425 480.342 198.667 479.592 198.818C478.842 198.974 477.902 199.047 476.762 199.047H470.024V186.839H476.762Z" fill="#030505"/>
<path d="M197.45 27.239L224.23 82.3665L197.333 146.259H211.412L237.55 82.3881L212.066 27.2778L197.45 27.239Z" fill="white"/>
<path d="M221.127 27.27L249.524 82.4493L221.374 146.247H231.003L258.416 82.4493L230.483 27.27H221.127Z" fill="white"/>
<path d="M354.033 127.17L347.442 165.285H328.735L336.462 126.881H354.111L354.033 127.17Z" fill="#1B1C1C"/>
<path d="M296.287 165.355H286.117L293.978 126.959H303.411L296.287 165.355Z" fill="#231F20"/>
<path d="M304.277 165.29H294.107L301.967 126.894H311.401L304.277 165.29Z" fill="white"/>
<path d="M465.039 165.091L535.841 126.88V165.281H497.543H497.062" fill="#1B1C1C"/>
<path d="M101.458 165.652H163.178L207.382 85.2569L175.159 27.2782L101.458 165.652Z" fill="#231F20"/>
</g>
</g>
<defs>
<clipPath id="clip0_2403_842">
<rect width="650" height="216" fill="white"/>
</clipPath>
</defs>
</svg>
